<svg width="22" height="22" viewBox="0 0 22 22" fill="none" xmlns="http://www.w3.org/2000/svg">
<path d="M7.5625 8.25V4.8125C7.5625 4.26549 7.7798 3.74089 8.16659 3.35409C8.55339 2.9673 9.07799 2.75 9.625 2.75H15.125C15.672 2.75 16.1966 2.9673 16.5834 3.35409C16.9702 3.74089 17.1875 4.26549 17.1875 4.8125V17.1875C17.1875 17.7345 16.9702 18.2591 16.5834 18.6459C16.1966 19.0327 15.672 19.25 15.125 19.25H9.625C9.07799 19.25 8.55339 19.0327 8.16659 18.6459C7.7798 18.2591 7.5625 17.7345 7.5625 17.1875V13.75M11 8.25L13.75 11M13.75 11L11 13.75M13.75 11H2.0625" stroke="#F7F7F7" stroke-width="1.5" stroke-linecap="round" stroke-linejoin="round"/>
</svg>
