<svg width="143" height="34" viewBox="0 0 143 34" fill="none" xmlns="http://www.w3.org/2000/svg">
<path d="M13.6 1.7C13.6 0.761116 12.8389 0 11.9 0C10.9611 0 10.2 0.761116 10.2 1.7V3.4L10.1217 3.4C8.59944 3.39997 7.34319 3.39995 6.32372 3.49235C5.26345 3.58844 4.29359 3.79511 3.4 4.31103C2.36627 4.90785 1.50785 5.76627 0.911029 6.8C0.395112 7.69359 0.188446 8.66345 0.0923502 9.72371C-4.84586e-05 10.7432 -2.61308e-05 11.9994 9.21542e-07 13.5217V13.6L3.4 13.6C3.4 11.9799 3.40163 10.8784 3.47847 10.0306C3.55319 9.20616 3.68816 8.78987 3.85552 8.5C4.15393 7.98313 4.58314 7.55393 5.1 7.25551C5.38987 7.08816 5.80617 6.95319 6.63061 6.87847C7.47843 6.80163 8.57987 6.8 10.2 6.8V27.2C8.57987 27.2 7.47843 27.1984 6.63061 27.1215C5.80617 27.0468 5.38987 26.9118 5.1 26.7445C4.58314 26.4461 4.15393 26.0169 3.85551 25.5C3.68816 25.2101 3.55319 24.7938 3.47847 23.9694C3.40163 23.1216 3.4 22.0201 3.4 20.4H9.21542e-07V20.4783C-2.58993e-05 22.0005 -4.80339e-05 23.2568 0.0923502 24.2763C0.188445 25.3366 0.395112 26.3064 0.911028 27.2C1.50785 28.2337 2.36627 29.0921 3.4 29.689C4.29359 30.2049 5.26345 30.4116 6.32372 30.5077C7.34315 30.6 8.59934 30.6 10.1216 30.6H10.2L10.2 32.3C10.2 33.2389 10.9611 34 11.9 34C12.8389 34 13.6 33.2389 13.6 32.3L13.6 1.7Z" fill="url(#paint0_linear_3790_14891)"/>
<path fill-rule="evenodd" clip-rule="evenodd" d="M23.154 1.43396V20.4H23.1455V22.1C23.1455 23.8325 23.1253 24.2369 23.052 24.5106C22.7981 25.458 22.058 26.1981 21.1106 26.452C20.8369 26.5253 20.4325 26.5455 18.7 26.5455V31.2545L18.9755 31.2547C20.2817 31.2559 21.3725 31.2569 22.3294 31.0005C24.9019 30.3112 26.9112 28.3019 27.6005 25.7294C27.7493 25.1738 27.8114 24.5732 27.8371 23.9115H27.8582V16.824H32.064C36.7994 16.824 40.0861 13.7398 40.0861 9.12898C40.0861 4.50262 36.9084 1.43396 32.2977 1.43396H23.154ZM27.8582 5.15685H31.0515C33.7463 5.15685 35.304 6.58993 35.304 9.14455C35.304 11.7148 33.7307 13.1478 31.0359 13.1478H27.8582V5.15685Z" fill="url(#paint1_linear_3790_14891)"/>
<path fill-rule="evenodd" clip-rule="evenodd" d="M46.3481 24.1763C48.4354 24.1763 50.5071 23.1327 51.4417 21.3569H51.5352V23.9115C51.5858 29.0474 55.3036 29.5364 59.1442 30.0416L59.1991 30.0488C59.3393 30.08 60.7568 30.0956 60.9125 30.0956C65.1806 30.0956 67.2679 28.569 68.701 24.2854L74.4489 7.21301H69.6512L66.0997 20.2665H66.0218L62.4702 7.21301H57.47L63.2802 23.9271C63.3003 23.9672 63.2363 24.2597 63.1882 24.4792C63.1617 24.6004 63.14 24.6994 63.14 24.7215C62.8285 26.0455 62.599 26.7261 60.4997 26.7261H59.0923C55.9128 26.2719 55.9237 24.574 55.9277 23.9677L55.9279 23.9115V12.4313C55.9279 9.06667 53.1396 6.85474 48.856 6.85474C44.4321 6.85474 41.675 9.08224 41.5036 12.3223H45.6627C45.8808 11.0917 46.9556 10.2505 48.6535 10.2505C50.3669 10.2505 51.4573 11.154 51.4573 12.7117V13.8176L47.2515 14.0669C43.0925 14.3161 40.756 16.0763 40.756 19.1138C40.756 22.1202 43.1704 24.1763 46.3481 24.1763ZM47.8435 20.8896C46.3013 20.8896 45.2733 20.1107 45.2733 18.8646C45.2733 17.6807 46.239 16.9175 47.9369 16.7928L51.4573 16.5748V17.7898C51.4573 19.5967 49.8217 20.8896 47.8435 20.8896Z" fill="url(#paint2_linear_3790_14891)"/>
<path fill-rule="evenodd" clip-rule="evenodd" d="M86.6924 18.8023C86.2718 20.0796 84.9945 20.9052 83.3278 20.9052C81.0068 20.9052 79.4958 19.2696 79.4958 16.8863V16.6059H91.0072V15.2196C91.0072 10.1415 87.9385 6.85474 83.0785 6.85474C78.1406 6.85474 75.0252 10.3128 75.0252 15.6401C75.0252 20.983 78.1095 24.2698 83.2499 24.2698C87.3778 24.2698 90.3685 22.0734 90.867 18.8023H86.6924ZM83.1253 10.2194C85.1503 10.2194 86.5366 11.6836 86.6301 13.8176H79.5426C79.6983 11.7303 81.1314 10.2194 83.1253 10.2194Z" fill="url(#paint3_linear_3790_14891)"/>
<path fill-rule="evenodd" clip-rule="evenodd" d="M98.3128 24.1763C100.4 24.1763 102.472 23.1327 103.406 21.3569H103.5V23.9115H107.893V12.4313C107.893 9.06667 105.104 6.85474 100.821 6.85474C96.3968 6.85474 93.6397 9.08224 93.4684 12.3223H97.6274C97.8455 11.0917 98.9203 10.2505 100.618 10.2505C102.332 10.2505 103.422 11.154 103.422 12.7117V13.8176L99.2163 14.0669C95.0572 14.3161 92.7207 16.0763 92.7207 19.1138C92.7207 22.1202 95.1351 24.1763 98.3128 24.1763ZM99.8082 20.8896C98.2661 20.8896 97.238 20.1107 97.238 18.8646C97.238 17.6807 98.2038 16.9175 99.9016 16.7928L103.422 16.5748V17.7898C103.422 19.5967 101.786 20.8896 99.8082 20.8896Z" fill="url(#paint4_linear_3790_14891)"/>
<path d="M110.556 12.1198C110.556 14.5809 112.176 16.2321 115.338 16.9486L118.423 17.634C119.918 17.9923 120.479 18.4596 120.479 19.3007C120.479 20.3911 119.435 21.0765 117.706 21.0765C115.899 21.0765 114.793 20.2665 114.575 18.8646H110.136C110.385 22.1202 113.126 24.2698 117.581 24.2698C121.99 24.2698 125.012 22.1046 125.012 18.8178C125.012 16.3255 123.656 15.0015 120.307 14.2538L117.114 13.5684C115.65 13.2257 114.933 12.6649 114.933 11.8394C114.933 10.7646 115.961 10.048 117.535 10.048C119.217 10.048 120.292 10.8736 120.385 12.2132H124.576C124.513 8.97321 121.787 6.85474 117.597 6.85474C113.313 6.85474 110.556 8.94205 110.556 12.1198Z" fill="url(#paint5_linear_3790_14891)"/>
<path d="M129.327 30.0956C133.595 30.0956 135.682 28.569 137.115 24.2854L142.863 7.21301H138.065L134.514 20.2665H134.436L130.884 7.21301H125.884L131.694 23.9271C131.714 23.9672 131.65 24.2597 131.602 24.4792C131.576 24.6004 131.554 24.6994 131.554 24.7215C131.242 26.0455 130.417 26.5752 128.75 26.5752C128.579 26.5752 127.753 26.5752 127.613 26.544V30.0488C127.753 30.08 129.171 30.0956 129.327 30.0956Z" fill="url(#paint6_linear_3790_14891)"/>
<defs>
<linearGradient id="paint0_linear_3790_14891" x1="-56.7956" y1="-20.6429" x2="-35.0649" y2="69.9506" gradientUnits="userSpaceOnUse">
<stop stop-color="#0077B6"/>
<stop offset="1" stop-color="#AB49FF"/>
</linearGradient>
<linearGradient id="paint1_linear_3790_14891" x1="-56.7956" y1="-20.6429" x2="-35.0649" y2="69.9506" gradientUnits="userSpaceOnUse">
<stop stop-color="#0077B6"/>
<stop offset="1" stop-color="#AB49FF"/>
</linearGradient>
<linearGradient id="paint2_linear_3790_14891" x1="-56.7956" y1="-20.6429" x2="-35.0649" y2="69.9506" gradientUnits="userSpaceOnUse">
<stop stop-color="#0077B6"/>
<stop offset="1" stop-color="#AB49FF"/>
</linearGradient>
<linearGradient id="paint3_linear_3790_14891" x1="-56.7956" y1="-20.6429" x2="-35.0649" y2="69.9506" gradientUnits="userSpaceOnUse">
<stop stop-color="#0077B6"/>
<stop offset="1" stop-color="#AB49FF"/>
</linearGradient>
<linearGradient id="paint4_linear_3790_14891" x1="-56.7956" y1="-20.6429" x2="-35.0649" y2="69.9506" gradientUnits="userSpaceOnUse">
<stop stop-color="#0077B6"/>
<stop offset="1" stop-color="#AB49FF"/>
</linearGradient>
<linearGradient id="paint5_linear_3790_14891" x1="-56.7956" y1="-20.6429" x2="-35.0649" y2="69.9506" gradientUnits="userSpaceOnUse">
<stop stop-color="#0077B6"/>
<stop offset="1" stop-color="#AB49FF"/>
</linearGradient>
<linearGradient id="paint6_linear_3790_14891" x1="-56.7956" y1="-20.6429" x2="-35.0649" y2="69.9506" gradientUnits="userSpaceOnUse">
<stop stop-color="#0077B6"/>
<stop offset="1" stop-color="#AB49FF"/>
</linearGradient>
</defs>
</svg>
