<svg width="514" height="123" viewBox="0 0 514 123" fill="none" xmlns="http://www.w3.org/2000/svg">
<path d="M48.9308 6.11635C48.9308 2.73839 46.1925 0 42.8145 0C39.4365 0 36.6981 2.73839 36.6981 6.11635V12.2327L36.4165 12.2327C30.9395 12.2326 26.4197 12.2325 22.7518 12.565C18.9371 12.9107 15.4477 13.6543 12.2327 15.5105C8.5135 17.6577 5.42504 20.7462 3.27775 24.4654C1.42156 27.6804 0.678 31.1698 0.332262 34.9845C-0.000174347 38.6524 -9.40147e-05 43.1722 3.31558e-06 48.6492V48.9308L12.2327 48.9308C12.2327 43.1018 12.2386 39.139 12.515 36.0887C12.7839 33.1224 13.2695 31.6247 13.8716 30.5818C14.9452 28.7222 16.4895 27.1779 18.3491 26.1043C19.392 25.5022 20.8897 25.0166 23.856 24.7477C26.9063 24.4713 30.8691 24.4654 36.6981 24.4654V97.8617C30.8691 97.8617 26.9063 97.8558 23.856 97.5794C20.8897 97.3105 19.392 96.8249 18.3491 96.2228C16.4895 95.1492 14.9452 93.6049 13.8716 91.7453C13.2695 90.7024 12.7839 89.2046 12.515 86.2384C12.2386 83.1881 12.2327 79.2253 12.2327 73.3963H3.31558e-06V73.6778C-9.31819e-05 79.1548 -0.000172819 83.6747 0.332263 87.3426C0.678 91.1572 1.42156 94.6467 3.27775 97.8617C5.42504 101.581 8.5135 104.669 12.2327 106.817C15.4477 108.673 18.9371 109.416 22.7518 109.762C26.4196 110.095 30.9392 110.094 36.4159 110.094H36.6981L36.6981 116.211C36.6981 119.589 39.4365 122.327 42.8145 122.327C46.1924 122.327 48.9308 119.589 48.9308 116.211L48.9308 6.11635Z" fill="#F7F7F7"/>
<path fill-rule="evenodd" clip-rule="evenodd" d="M83.3047 5.15918V73.3963H83.2742V79.5126C83.2742 85.746 83.2014 87.201 82.9376 88.1856C82.0242 91.5943 79.3616 94.2569 75.9529 95.1703C74.9683 95.4341 73.5133 95.5069 67.2799 95.5069V112.449L68.2712 112.45C72.9705 112.454 76.895 112.458 80.3378 111.535C89.5933 109.055 96.8226 101.826 99.3026 92.5705C99.8381 90.5719 100.062 88.4108 100.154 86.0301H100.23V60.5303H115.362C132.399 60.5303 144.224 49.4337 144.224 32.8447C144.224 16.1998 132.791 5.15918 116.202 5.15918H83.3047ZM100.23 18.5536H111.719C121.414 18.5536 127.019 23.7096 127.019 32.9008C127.019 42.148 121.358 47.304 111.663 47.304H100.23V18.5536Z" fill="#F7F7F7"/>
<path fill-rule="evenodd" clip-rule="evenodd" d="M166.754 86.9829C174.264 86.9829 181.717 83.228 185.08 76.839H185.416V86.0301C185.598 104.508 198.975 106.268 212.792 108.085L212.99 108.111C213.494 108.223 218.594 108.279 219.154 108.279C234.51 108.279 242.02 102.787 247.176 87.3752L267.856 25.9514H250.595L237.817 72.9159H237.537L224.759 25.9514H206.769L227.673 86.0862C227.745 86.2307 227.515 87.2827 227.342 88.0727C227.247 88.5086 227.169 88.8647 227.169 88.9444C226.048 93.7081 225.222 96.1567 217.669 96.1567H212.605C201.166 94.5225 201.206 88.4136 201.22 86.2322L201.221 86.0301V44.726C201.221 32.6206 191.189 24.6624 175.777 24.6624C159.86 24.6624 149.941 32.6766 149.324 44.3337H164.288C165.072 39.9062 168.939 36.8799 175.048 36.8799C181.213 36.8799 185.136 40.1304 185.136 45.7348V49.7139L170.004 50.6106C155.041 51.5073 146.634 57.8402 146.634 68.7687C146.634 79.5851 155.321 86.9829 166.754 86.9829ZM172.134 75.1577C166.586 75.1577 162.887 72.3555 162.887 67.872C162.887 63.6127 166.361 60.8666 172.47 60.4182L185.136 59.6336V64.005C185.136 70.5061 179.251 75.1577 172.134 75.1577Z" fill="#F7F7F7"/>
<path fill-rule="evenodd" clip-rule="evenodd" d="M311.907 67.6478C310.393 72.2434 305.798 75.2137 299.801 75.2137C291.451 75.2137 286.015 69.3291 286.015 60.7545V59.7457H327.431V54.7578C327.431 36.4876 316.39 24.6624 298.905 24.6624C281.139 24.6624 269.93 37.1041 269.93 56.271C269.93 75.4939 281.027 87.3191 299.521 87.3191C314.373 87.3191 325.133 79.417 326.926 67.6478H311.907ZM299.073 36.7678C306.358 36.7678 311.346 42.0359 311.682 49.7139H286.183C286.743 42.204 291.899 36.7678 299.073 36.7678Z" fill="#F7F7F7"/>
<path fill-rule="evenodd" clip-rule="evenodd" d="M353.715 86.9829C361.225 86.9829 368.679 83.228 372.042 76.839H372.378V86.0301H388.182V44.726C388.182 32.6206 378.15 24.6624 362.738 24.6624C346.822 24.6624 336.902 32.6766 336.286 44.3337H351.249C352.034 39.9062 355.901 36.8799 362.01 36.8799C368.174 36.8799 372.098 40.1304 372.098 45.7348V49.7139L356.966 50.6106C342.002 51.5073 333.596 57.8402 333.596 68.7687C333.596 79.5851 342.282 86.9829 353.715 86.9829ZM359.095 75.1577C353.547 75.1577 349.848 72.3555 349.848 67.872C349.848 63.6127 353.323 60.8666 359.432 60.4182L372.098 59.6336V64.005C372.098 70.5061 366.213 75.1577 359.095 75.1577Z" fill="#F7F7F7"/>
<path d="M397.766 43.6051C397.766 52.46 403.594 58.4006 414.971 60.9786L426.068 63.4446C431.448 64.7336 433.465 66.4149 433.465 69.4412C433.465 73.3643 429.71 75.8302 423.49 75.8302C416.988 75.8302 413.009 72.9159 412.225 67.872H396.252C397.149 79.5851 407.013 87.3191 423.041 87.3191C438.902 87.3191 449.774 79.5291 449.774 67.7039C449.774 58.7369 444.898 53.9732 432.849 51.2831L421.36 48.8172C416.092 47.5842 413.514 45.5666 413.514 42.5963C413.514 38.7293 417.213 36.1513 422.873 36.1513C428.926 36.1513 432.793 39.1216 433.129 43.9414H448.205C447.981 32.2843 438.173 24.6624 423.097 24.6624C407.685 24.6624 397.766 32.1722 397.766 43.6051Z" fill="#F7F7F7"/>
<path d="M465.298 108.279C480.654 108.279 488.164 102.787 493.32 87.3752L514 25.9514H496.738L483.961 72.9159H483.68L470.902 25.9514H452.912L473.817 86.0862C473.889 86.2307 473.659 87.2827 473.486 88.0727C473.39 88.5086 473.312 88.8647 473.312 88.9444C472.191 93.7081 469.221 95.6136 463.224 95.6136C462.608 95.6136 459.638 95.6136 459.133 95.5015V108.111C459.638 108.223 464.738 108.279 465.298 108.279Z" fill="#F7F7F7"/>
</svg>
