<svg width="40" height="40" viewBox="0 0 40 40" fill="none" xmlns="http://www.w3.org/2000/svg">
<rect width="40" height="40" rx="20" fill="#EBEBEB"/>
<path d="M22.0832 27.5V23.5C22.0832 22.9477 21.6355 22.5 21.0832 22.5H18.9165C18.3642 22.5 17.9165 22.9477 17.9165 23.5V27.5" stroke="#B2B2B2" stroke-width="2" stroke-linecap="round" stroke-linejoin="round"/>
<path d="M14.1665 19.167V23.5003C14.1665 25.3859 14.1665 26.3288 14.7523 26.9145C15.3381 27.5003 16.2809 27.5003 18.1665 27.5003H21.8332C23.7188 27.5003 24.6616 27.5003 25.2474 26.9145C25.8332 26.3288 25.8332 25.3859 25.8332 23.5003V19.167" stroke="#B2B2B2" stroke-width="2"/>
<path d="M13.7879 14.0149C13.9698 13.2874 14.0608 12.9236 14.332 12.7118C14.6033 12.5 14.9783 12.5 15.7282 12.5H24.2718C25.0217 12.5 25.3967 12.5 25.668 12.7118C25.9392 12.9236 26.0302 13.2874 26.2121 14.0149L27.152 17.7745C27.1857 17.9096 27.2026 17.9772 27.21 18.0314C27.2861 18.5889 26.8876 19.0993 26.3283 19.1607C26.2739 19.1667 26.2004 19.1667 26.0534 19.1667V19.1667C25.876 19.1667 25.7873 19.1667 25.7139 19.1613C24.8484 19.0974 24.1229 18.4828 23.9176 17.6396C23.9002 17.5681 23.8865 17.4856 23.859 17.3205V17.3205C23.8513 17.2743 23.8474 17.2512 23.8452 17.2442C23.8153 17.1519 23.6847 17.1519 23.6548 17.2442C23.6526 17.2512 23.6487 17.2743 23.641 17.3205L23.5731 17.7282C23.4347 18.5583 22.7165 19.1667 21.875 19.1667V19.1667C21.0335 19.1667 20.3153 18.5583 20.1769 17.7282L20.109 17.3205C20.1013 17.2743 20.0974 17.2512 20.0952 17.2442C20.0653 17.1519 19.9347 17.1519 19.9048 17.2442C19.9026 17.2512 19.8987 17.2743 19.891 17.3205L19.8231 17.7282C19.6847 18.5583 18.9665 19.1667 18.125 19.1667V19.1667C17.2835 19.1667 16.5653 18.5583 16.4269 17.7282L16.359 17.3205C16.3513 17.2743 16.3474 17.2512 16.3452 17.2442C16.3153 17.1519 16.1847 17.1519 16.1548 17.2442C16.1526 17.2512 16.1487 17.2743 16.141 17.3205V17.3205C16.1135 17.4856 16.0998 17.5681 16.0824 17.6396C15.8771 18.4828 15.1516 19.0974 14.2861 19.1613C14.2127 19.1667 14.124 19.1667 13.9466 19.1667V19.1667C13.7996 19.1667 13.7261 19.1667 13.6717 19.1607C13.1124 19.0993 12.7139 18.5889 12.79 18.0314C12.7974 17.9772 12.8143 17.9096 12.848 17.7745L13.7879 14.0149Z" stroke="#B2B2B2" stroke-width="2"/>
</svg>
