<svg width="40" height="40" viewBox="0 0 40 40" fill="none" xmlns="http://www.w3.org/2000/svg">
<rect width="40" height="40" rx="20" fill="#EBEBEB"/>
<path d="M21.78 12.8015L20.7849 12.901V12.901L21.78 12.8015ZM21.7195 12.3802L20.7615 12.667V12.667L21.7195 12.3802ZM21.8945 13.555L20.9658 13.9258L20.9658 13.9258L21.8945 13.555ZM23.2176 14.103L22.8232 13.1841V13.1841L23.2176 14.103ZM23.8314 13.6513L23.2767 12.8192L23.236 12.8463L23.1982 12.8773L23.8314 13.6513ZM23.8314 13.6513L24.3861 14.4833L24.4268 14.4562L24.4646 14.4252L23.8314 13.6513ZM24.172 13.3961L23.6974 12.5159L23.6974 12.5159L24.172 13.3961ZM25.2065 13.4477L25.7664 12.6191L25.7664 12.6191L25.2065 13.4477ZM25.5201 13.7355L24.813 14.4426L24.813 14.4426L25.5201 13.7355ZM26.2646 14.48L26.9717 13.7729V13.7729L26.2646 14.48ZM26.5524 14.7936L25.7238 15.3535L25.7238 15.3535L26.5524 14.7936ZM26.604 15.8281L25.7238 15.3535L25.7238 15.3535L26.604 15.8281ZM26.3489 16.1687L27.1228 16.802L27.1228 16.802L26.3489 16.1687ZM25.8971 16.7825L24.9782 16.3881L24.9782 16.3881L25.8971 16.7825ZM26.4451 18.1056L26.816 17.177L26.816 17.177L26.4451 18.1056ZM27.1986 18.2202L27.0991 19.2152L27.1986 18.2202ZM27.6199 18.2806L27.3332 19.2386H27.3332L27.6199 18.2806ZM28.315 19.0486L29.2967 18.8586V18.8586L28.315 19.0486ZM28.315 20.9519L27.3332 20.762L27.3332 20.762L28.315 20.9519ZM27.6199 21.72L27.9065 22.6781L27.9065 22.6781L27.6199 21.72ZM27.1987 21.7804L27.0992 20.7854L27.0505 20.7903L27.0026 20.7999L27.1987 21.7804ZM27.1987 21.7804L27.2982 22.7755L27.3469 22.7706L27.3948 22.761L27.1987 21.7804ZM26.4456 21.8949L26.0749 20.9662L26.0749 20.9662L26.4456 21.8949ZM25.8975 23.2183L24.9786 23.6128L24.9786 23.6128L25.8975 23.2183ZM26.349 23.8316L25.575 24.4649L25.575 24.4649L26.349 23.8316ZM26.604 24.1721L25.7239 24.6468L25.7239 24.6468L26.604 24.1721ZM26.5524 25.2068L25.7239 24.6468L25.7239 24.6468L26.5524 25.2068ZM25.2066 26.5526L25.7665 27.3811L25.7665 27.3811L25.2066 26.5526ZM24.1721 26.6042L23.6974 27.4843H23.6974L24.1721 26.6042ZM23.8314 26.349L24.4647 25.5751L24.4268 25.5441L24.3861 25.517L23.8314 26.349ZM23.8314 26.349L23.1913 27.1172L23.2323 27.1514L23.2767 27.1811L23.8314 26.349ZM23.8314 26.349L24.4716 25.5807L24.4647 25.575L23.8314 26.349ZM23.2177 25.8973L22.8232 26.8162L22.8232 26.8162L23.2177 25.8973ZM21.8946 26.4453L20.9659 26.0745L20.9659 26.0745L21.8946 26.4453ZM21.78 27.1989L22.775 27.2984V27.2984L21.78 27.1989ZM21.7195 27.6205L22.6775 27.9074L22.6775 27.9073L21.7195 27.6205ZM20.9516 28.3154L20.7615 27.3337L20.7615 27.3337L20.9516 28.3154ZM19.0481 28.3154L18.8581 29.2972H18.8581L19.0481 28.3154ZM18.2802 27.6204L17.3222 27.9072L17.3222 27.9072L18.2802 27.6204ZM18.2197 27.1991L17.2247 27.2986V27.2986L18.2197 27.1991ZM18.1051 26.4456L19.0338 26.0747L19.0338 26.0747L18.1051 26.4456ZM16.782 25.8976L16.3876 24.9787L16.3876 24.9787L16.782 25.8976ZM16.1682 26.3494L15.535 25.5754L15.535 25.5754L16.1682 26.3494ZM15.8276 26.6046L15.3529 25.7244L15.3529 25.7244L15.8276 26.6046ZM14.7931 26.553L15.3529 25.7244L15.3529 25.7244L14.7931 26.553ZM14.4795 26.2652L15.1866 25.558L15.1658 25.5373L15.1439 25.5177L14.4795 26.2652ZM14.4795 26.2652L13.7724 26.9723L13.7932 26.993L13.8151 27.0126L14.4795 26.2652ZM13.735 25.5206L13.0279 26.2277H13.0279L13.735 25.5206ZM13.735 25.5206L13.0279 26.2277L13.0279 26.2277L13.735 25.5206ZM13.4472 25.2071L12.6186 25.7669L12.6186 25.7669L13.4472 25.2071ZM13.3956 24.1726L12.5154 23.6979L12.5154 23.6979L13.3956 24.1726ZM13.6508 23.8319L12.8768 23.1987H12.8768L13.6508 23.8319ZM14.1025 23.2181L15.0214 23.6126H15.0214L14.1025 23.2181ZM13.5545 21.895L13.9253 20.9663H13.9253L13.5545 21.895ZM12.801 21.7804L12.7015 22.7755L12.7015 22.7755L12.801 21.7804ZM12.3798 21.72L12.093 22.678L12.093 22.678L12.3798 21.72ZM11.6847 20.952L12.6665 20.762L11.6847 20.952ZM11.6665 20.5268H10.6665H11.6665ZM11.6665 19.4739H12.6665H11.6665ZM11.6847 19.0486L12.6665 19.2386L12.6665 19.2386L11.6847 19.0486ZM12.3797 18.2807L12.0928 17.3227H12.0928L12.3797 18.2807ZM12.8011 18.2202L12.7016 17.2252L12.7016 17.2252L12.8011 18.2202ZM13.5549 18.1056L13.9259 19.0342L13.9259 19.0342L13.5549 18.1056ZM14.1029 16.7826L13.1839 17.1769L13.1839 17.1769L14.1029 16.7826ZM13.6509 16.1685L14.4249 15.5353L14.4249 15.5353L13.6509 16.1685ZM13.3956 15.8276L14.2758 15.3531L14.2758 15.3531L13.3956 15.8276ZM13.4472 14.7933L12.6185 14.2336H12.6185L13.4472 14.7933ZM13.7351 14.4796L14.4422 15.1867L14.4536 15.1753L14.4646 15.1635L13.7351 14.4796ZM13.7351 14.4796L13.028 13.7725L13.0166 13.7839L13.0056 13.7956L13.7351 14.4796ZM14.4795 13.7351L15.1867 14.4422L15.1867 14.4422L14.4795 13.7351ZM14.7931 13.4473L15.353 14.2759L15.353 14.2759L14.7931 13.4473ZM15.8276 13.3957L16.3022 12.5155L16.3022 12.5155L15.8276 13.3957ZM16.1683 13.651L15.5351 14.4249L15.5351 14.4249L16.1683 13.651ZM16.782 14.1026L17.1765 13.1838L17.1765 13.1838L16.782 14.1026ZM18.1052 13.5545L17.1765 13.1838L17.1765 13.1838L18.1052 13.5545ZM18.2197 12.8014L17.2247 12.7019V12.7019L18.2197 12.8014ZM18.2801 12.3803L19.2382 12.667V12.667L18.2801 12.3803ZM19.0482 11.6852L19.2382 12.667L19.0482 11.6852ZM20.9515 11.6852L20.7615 12.667L20.7615 12.667L20.9515 11.6852ZM22.775 12.702C22.7575 12.5273 22.7393 12.3 22.6775 12.0935L20.7615 12.667C20.7541 12.6422 20.7552 12.6351 20.7607 12.6762C20.7669 12.7219 20.7733 12.7846 20.7849 12.901L22.775 12.702ZM22.8232 13.1841C22.8431 13.234 22.8377 13.2467 22.8234 13.1453C22.81 13.0498 22.7966 12.9179 22.775 12.702L20.7849 12.901C20.8048 13.1001 20.8226 13.2794 20.8429 13.4242C20.8625 13.5629 20.8936 13.7449 20.9658 13.9258L22.8232 13.1841ZM22.8232 13.1841L22.8232 13.1841L20.9658 13.9258C21.3829 14.9702 22.5787 15.4655 23.6121 15.0219L22.8232 13.1841ZM23.1982 12.8773C23.0302 13.0147 22.9275 13.0985 22.8505 13.1565C22.7687 13.2181 22.7739 13.2053 22.8232 13.1841L23.6121 15.0219C23.7911 14.9451 23.9418 14.8384 24.0537 14.7541C24.1705 14.6661 24.3098 14.5519 24.4646 14.4252L23.1982 12.8773ZM23.2767 12.8192L23.2767 12.8192L24.3861 14.4833L24.3861 14.4833L23.2767 12.8192ZM23.6974 12.5159C23.5076 12.6183 23.334 12.7661 23.1982 12.8773L24.4646 14.4252C24.5552 14.3511 24.6041 14.3113 24.6407 14.2834C24.6737 14.2582 24.6695 14.264 24.6467 14.2763L23.6974 12.5159ZM25.7664 12.6191C25.1497 12.2024 24.3525 12.1626 23.6974 12.5159L24.6467 14.2763L24.6467 14.2763L25.7664 12.6191ZM26.2272 13.0284C26.103 12.9042 25.9451 12.7398 25.7664 12.6191L24.6467 14.2763C24.6252 14.2618 24.6215 14.2556 24.6519 14.2839C24.6856 14.3154 24.7302 14.3598 24.813 14.4426L26.2272 13.0284ZM26.9717 13.7729L26.2272 13.0284L24.813 14.4426L25.5575 15.1872L26.9717 13.7729ZM27.381 14.2337C27.2603 14.0551 27.0959 13.8971 26.9717 13.7729L25.5575 15.1872C25.6403 15.2699 25.6848 15.3146 25.7162 15.3482C25.7446 15.3786 25.7383 15.3749 25.7238 15.3535L27.381 14.2337ZM27.4842 16.3028C27.8375 15.6476 27.7977 14.8505 27.381 14.2337L25.7238 15.3535V15.3535L27.4842 16.3028ZM27.1228 16.802C27.234 16.6661 27.3819 16.4925 27.4842 16.3028L25.7238 15.3535C25.7361 15.3307 25.742 15.3264 25.7168 15.3595C25.6888 15.3961 25.649 15.4449 25.5749 15.5355L27.1228 16.802ZM26.816 17.177C26.7948 17.2263 26.782 17.2315 26.8436 17.1497C26.9016 17.0727 26.9854 16.9699 27.1228 16.802L25.5749 15.5355C25.4482 15.6903 25.334 15.8297 25.246 15.9465C25.1617 16.0584 25.055 16.2091 24.9782 16.3881L26.816 17.177ZM26.816 17.177L24.9782 16.3881C24.5346 17.4215 25.0299 18.6173 26.0743 19.0343L26.816 17.177ZM27.2981 17.2252C27.0822 17.2036 26.9503 17.1902 26.8548 17.1767C26.7534 17.1625 26.7661 17.157 26.816 17.177L26.0743 19.0343C26.2552 19.1066 26.4372 19.1377 26.576 19.1572C26.7207 19.1776 26.9001 19.1953 27.0991 19.2152L27.2981 17.2252ZM27.9067 17.3226C27.7001 17.2608 27.4728 17.2426 27.2981 17.2252L27.0991 19.2152C27.2156 19.2269 27.2783 19.2333 27.3239 19.2394C27.3651 19.245 27.358 19.2461 27.3332 19.2386L27.9067 17.3226ZM29.2967 18.8586C29.1553 18.1279 28.6198 17.5361 27.9067 17.3226L27.3332 19.2386L27.3332 19.2386L29.2967 18.8586ZM29.3332 19.4739C29.3332 19.2983 29.3377 19.0703 29.2967 18.8586L27.3332 19.2386C27.3282 19.2132 27.3301 19.2062 27.3315 19.2478C27.333 19.2938 27.3332 19.3568 27.3332 19.4739H29.3332ZM29.3332 20.5269V19.4739H27.3332V20.5269H29.3332ZM29.2968 21.1419C29.3377 20.9303 29.3332 20.7024 29.3332 20.5269H27.3332C27.3332 20.6439 27.333 20.7069 27.3315 20.7529C27.3301 20.7944 27.3283 20.7874 27.3332 20.762L29.2968 21.1419ZM27.9065 22.6781C28.6197 22.4646 29.1554 21.8728 29.2968 21.1419L27.3332 20.762L27.3332 20.762L27.9065 22.6781ZM27.2982 22.7755C27.4729 22.758 27.7001 22.7398 27.9065 22.6781L27.3332 20.762C27.358 20.7546 27.3651 20.7557 27.3239 20.7612C27.2783 20.7674 27.2156 20.7738 27.0992 20.7854L27.2982 22.7755ZM27.3948 22.761L27.3948 22.761L27.0026 20.7999L27.0026 20.7999L27.3948 22.761ZM26.8163 22.8237C26.7665 22.8436 26.7537 22.8381 26.8551 22.8239C26.9505 22.8104 27.0824 22.7971 27.2982 22.7755L27.0992 20.7854C26.9002 20.8053 26.721 20.823 26.5763 20.8434C26.4376 20.8629 26.2557 20.894 26.0749 20.9662L26.8163 22.8237ZM26.8163 22.8237L26.0749 20.9662C25.0302 21.3832 24.5348 22.5793 24.9786 23.6128L26.8163 22.8237ZM27.1229 23.1984C26.9856 23.0306 26.9019 22.9279 26.8439 22.8509C26.7823 22.7691 26.7952 22.7743 26.8163 22.8237L24.9786 23.6128C25.0554 23.7917 25.1621 23.9423 25.2463 24.0542C25.3343 24.1709 25.4484 24.3102 25.575 24.4649L27.1229 23.1984ZM27.4841 23.6973C27.3818 23.5077 27.2341 23.3342 27.1229 23.1984L25.575 24.4649C25.6491 24.5554 25.6889 24.6042 25.7168 24.6408C25.742 24.6739 25.7362 24.6696 25.7239 24.6468L27.4841 23.6973ZM27.3809 25.7667C27.7978 25.1499 27.8376 24.3526 27.4841 23.6973L25.7239 24.6468V24.6468L27.3809 25.7667ZM26.9719 26.2272C27.096 26.1032 27.2603 25.9453 27.3809 25.7667L25.7239 24.6468C25.7384 24.6254 25.7446 24.6217 25.7162 24.6521C25.6848 24.6857 25.6404 24.7303 25.5577 24.813L26.9719 26.2272ZM26.2272 26.9719L26.9719 26.2272L25.5577 24.813L24.813 25.5577L26.2272 26.9719ZM25.7665 27.3811C25.9451 27.2604 26.1031 27.096 26.2272 26.9719L24.813 25.5577C24.7302 25.6404 24.6856 25.6849 24.652 25.7163C24.6216 25.7447 24.6252 25.7385 24.6467 25.724L25.7665 27.3811ZM23.6974 27.4843C24.3526 27.8376 25.1497 27.7979 25.7665 27.3811L24.6467 25.724L24.6467 25.724L23.6974 27.4843ZM23.1982 27.123C23.3341 27.2341 23.5076 27.382 23.6974 27.4843L24.6467 25.724C24.6695 25.7363 24.6738 25.7421 24.6407 25.7169C24.6041 25.689 24.5553 25.6492 24.4647 25.5751L23.1982 27.123ZM23.2767 27.1811L23.2767 27.1811L24.3861 25.517L24.3861 25.517L23.2767 27.1811ZM23.1912 27.1172L23.1913 27.1172L24.4716 25.5808L24.4716 25.5808L23.1912 27.1172ZM22.8232 26.8162C22.7739 26.795 22.7687 26.7821 22.8505 26.8438C22.9275 26.9018 23.0302 26.9856 23.1982 27.123L24.4647 25.575C24.3098 25.4484 24.1705 25.3341 24.0537 25.2462C23.9418 25.1619 23.7911 25.0552 23.6121 24.9783L22.8232 26.8162ZM22.8232 26.8162H22.8232L23.6121 24.9783C22.5787 24.5348 21.3829 25.0301 20.9659 26.0745L22.8232 26.8162ZM22.775 27.2984C22.7966 27.0825 22.81 26.9505 22.8234 26.855C22.8377 26.7535 22.8432 26.7663 22.8232 26.8162L20.9659 26.0745C20.8936 26.2554 20.8625 26.4374 20.843 26.5762C20.8226 26.721 20.8048 26.9003 20.7849 27.0994L22.775 27.2984ZM22.6775 27.9073C22.7393 27.7007 22.7575 27.4733 22.775 27.2984L20.7849 27.0994C20.7733 27.216 20.7669 27.2787 20.7607 27.3244C20.7552 27.3656 20.7541 27.3585 20.7615 27.3337L22.6775 27.9073ZM21.1417 29.2972C21.8723 29.1557 22.464 28.6203 22.6775 27.9074L20.7615 27.3337L20.7615 27.3337L21.1417 29.2972ZM20.5262 29.3337C20.7019 29.3337 20.9299 29.3382 21.1417 29.2972L20.7615 27.3337C20.787 27.3287 20.7939 27.3305 20.7524 27.332C20.7063 27.3335 20.6433 27.3337 20.5262 27.3337V29.3337ZM19.4734 29.3337H20.5262V27.3337H19.4734V29.3337ZM18.8581 29.2972C19.0698 29.3382 19.2978 29.3337 19.4734 29.3337V27.3337C19.3563 27.3337 19.2933 27.3335 19.2473 27.332C19.2057 27.3305 19.2127 27.3287 19.2382 27.3337L18.8581 29.2972ZM17.3222 27.9072C17.5356 28.6202 18.1274 29.1558 18.8581 29.2972L19.2382 27.3337L19.2382 27.3337L17.3222 27.9072ZM17.2247 27.2986C17.2422 27.4733 17.2603 27.7006 17.3222 27.9072L19.2382 27.3337C19.2456 27.3585 19.2445 27.3656 19.2389 27.3244C19.2328 27.2788 19.2264 27.2161 19.2148 27.0996L17.2247 27.2986ZM17.1765 26.8165C17.1566 26.7666 17.162 26.7539 17.1763 26.8553C17.1897 26.9508 17.2031 27.0827 17.2247 27.2986L19.2148 27.0996C19.1948 26.9006 19.1771 26.7212 19.1567 26.5764C19.1372 26.4377 19.1061 26.2556 19.0338 26.0747L17.1765 26.8165ZM17.1765 26.8165H17.1765L19.0338 26.0747C18.6168 25.0304 17.421 24.5351 16.3876 24.9787L17.1765 26.8165ZM16.8015 27.1233C16.9694 26.9859 17.0722 26.9021 17.1492 26.8441C17.231 26.7825 17.2258 26.7953 17.1765 26.8165L16.3876 24.9787C16.2086 25.0555 16.0579 25.1622 15.946 25.2465C15.8292 25.3345 15.6898 25.4487 15.535 25.5754L16.8015 27.1233ZM16.3022 27.4847C16.492 27.3824 16.6656 27.2345 16.8015 27.1233L15.535 25.5754C15.4444 25.6495 15.3955 25.6893 15.3589 25.7173C15.3259 25.7425 15.3301 25.7367 15.3529 25.7244L16.3022 27.4847ZM14.2332 27.3815C14.85 27.7983 15.6471 27.838 16.3022 27.4847L15.3529 25.7244H15.3529L14.2332 27.3815ZM13.7724 26.9723C13.8966 27.0964 14.0546 27.2608 14.2332 27.3815L15.3529 25.7244C15.3744 25.7389 15.3781 25.7451 15.3477 25.7167C15.314 25.6853 15.2694 25.6408 15.1866 25.558L13.7724 26.9723ZM13.8151 27.0126L13.8152 27.0126L15.1439 25.5177L15.1439 25.5177L13.8151 27.0126ZM13.0279 26.2277L13.7724 26.9723L15.1866 25.558L14.4421 24.8135L13.0279 26.2277ZM13.0279 26.2277L13.0279 26.2277L14.4421 24.8135L14.4421 24.8135L13.0279 26.2277ZM12.6186 25.7669C12.7393 25.9456 12.9037 26.1036 13.0279 26.2277L14.4421 24.8135C14.3593 24.7307 14.3148 24.6861 14.2834 24.6524C14.255 24.6221 14.2613 24.6257 14.2758 24.6472L12.6186 25.7669ZM12.5154 23.6979C12.1621 24.3531 12.2019 25.1502 12.6186 25.7669L14.2758 24.6472L14.2758 24.6472L12.5154 23.6979ZM12.8768 23.1987C12.7656 23.3346 12.6177 23.5081 12.5154 23.6979L14.2758 24.6472C14.2635 24.67 14.2577 24.6742 14.2829 24.6412C14.3108 24.6046 14.3506 24.5557 14.4247 24.4651L12.8768 23.1987ZM13.1836 22.8237C13.2048 22.7743 13.2177 22.7691 13.156 22.851C13.098 22.928 13.0142 23.0307 12.8768 23.1987L14.4247 24.4651C14.5514 24.3103 14.6656 24.171 14.7536 24.0542C14.8379 23.9422 14.9446 23.7915 15.0214 23.6126L13.1836 22.8237ZM13.1836 22.8237L13.1836 22.8237L15.0214 23.6126C15.465 22.5792 14.9697 21.3834 13.9253 20.9663L13.1836 22.8237ZM12.7015 22.7755C12.9174 22.7971 13.0493 22.8105 13.1448 22.8239C13.2463 22.8382 13.2335 22.8436 13.1836 22.8237L13.9253 20.9663C13.7445 20.8941 13.5624 20.863 13.4237 20.8434C13.2789 20.823 13.0996 20.8053 12.9005 20.7854L12.7015 22.7755ZM12.093 22.678C12.2995 22.7398 12.5268 22.758 12.7015 22.7755L12.9005 20.7854C12.7841 20.7738 12.7214 20.7674 12.6758 20.7612C12.6346 20.7557 12.6417 20.7546 12.6665 20.762L12.093 22.678ZM10.7029 21.142C10.8444 21.8728 11.3799 22.4646 12.093 22.678L12.6665 20.762L12.6665 20.762L10.7029 21.142ZM10.6665 20.5268C10.6665 20.7024 10.662 20.9303 10.7029 21.142L12.6665 20.762C12.6714 20.7874 12.6696 20.7944 12.6682 20.7529C12.6666 20.7069 12.6665 20.6439 12.6665 20.5268H10.6665ZM10.6665 19.4739L10.6665 20.5268H12.6665V19.4739H10.6665ZM10.703 18.8585C10.662 19.0702 10.6665 19.2983 10.6665 19.4739H12.6665C12.6665 19.3568 12.6666 19.2938 12.6682 19.2478C12.6696 19.2062 12.6714 19.2132 12.6665 19.2386L10.703 18.8585ZM12.0928 17.3227C11.3799 17.5361 10.8444 18.1278 10.703 18.8585L12.6665 19.2386H12.6665L12.0928 17.3227ZM12.7016 17.2252C12.5269 17.2426 12.2995 17.2608 12.0928 17.3227L12.6665 19.2386C12.6417 19.2461 12.6346 19.245 12.6758 19.2394C12.7214 19.2333 12.7841 19.2269 12.9006 19.2152L12.7016 17.2252ZM13.1839 17.1769C13.2338 17.157 13.2466 17.1624 13.1451 17.1767C13.0496 17.1902 12.9176 17.2036 12.7016 17.2252L12.9006 19.2152C13.0998 19.1953 13.2792 19.1776 13.424 19.1572C13.5628 19.1376 13.7449 19.1065 13.9259 19.0342L13.1839 17.1769ZM13.1839 17.1769L13.1839 17.1769L13.9259 19.0342C14.97 18.6171 15.4652 17.4215 15.0219 16.3883L13.1839 17.1769ZM12.8769 16.8017C13.0144 16.9698 13.0983 17.0726 13.1563 17.1496C13.218 17.2315 13.2051 17.2263 13.1839 17.1769L15.0219 16.3883C14.945 16.2092 14.8383 16.0584 14.7539 15.9464C14.6659 15.8296 14.5516 15.6902 14.4249 15.5353L12.8769 16.8017ZM12.5153 16.3022C12.6177 16.4921 12.7657 16.6658 12.8769 16.8017L14.4249 15.5353C14.3507 15.4446 14.3109 15.3957 14.2829 15.3591C14.2577 15.326 14.2635 15.3303 14.2758 15.3531L12.5153 16.3022ZM12.6185 14.2336C12.2019 14.8502 12.1622 15.6471 12.5153 16.3022L14.2758 15.3531L12.6185 14.2336ZM13.028 13.7725C12.9038 13.8967 12.7393 14.0548 12.6185 14.2336L14.2758 15.3531C14.2613 15.3746 14.2551 15.3782 14.2835 15.3478C14.3149 15.3142 14.3594 15.2695 14.4422 15.1867L13.028 13.7725ZM13.0056 13.7956L13.0056 13.7956L14.4646 15.1635L14.4647 15.1635L13.0056 13.7956ZM13.7724 13.028L13.028 13.7725L14.4422 15.1867L15.1867 14.4422L13.7724 13.028ZM14.2333 12.6187C14.0546 12.7395 13.8966 12.9039 13.7724 13.028L15.1867 14.4422C15.2694 14.3595 15.3141 14.315 15.3477 14.2836C15.3781 14.2552 15.3744 14.2614 15.353 14.2759L14.2333 12.6187ZM16.3022 12.5155C15.6471 12.1623 14.85 12.202 14.2333 12.6187L15.353 14.2759L15.353 14.2759L16.3022 12.5155ZM16.8016 12.877C16.6656 12.7658 16.492 12.6179 16.3022 12.5155L15.353 14.2759C15.3302 14.2636 15.3259 14.2578 15.359 14.283C15.3956 14.311 15.4445 14.3508 15.5351 14.4249L16.8016 12.877ZM17.1765 13.1838C17.2258 13.205 17.231 13.2178 17.1492 13.1562C17.0722 13.0982 16.9695 13.0144 16.8016 12.877L15.5351 14.4249C15.6899 14.5516 15.8292 14.6658 15.9459 14.7537C16.0578 14.838 16.2085 14.9447 16.3874 15.0215L17.1765 13.1838ZM17.1765 13.1838L17.1765 13.1838L16.3874 15.0215C17.4209 15.4653 18.617 14.9699 19.034 13.9253L17.1765 13.1838ZM17.2247 12.7019C17.2031 12.9177 17.1897 13.0496 17.1763 13.145C17.162 13.2464 17.1566 13.2336 17.1765 13.1838L19.034 13.9253C19.1061 13.7445 19.1372 13.5625 19.1568 13.4238C19.1771 13.2791 19.1949 13.0999 19.2148 12.9009L17.2247 12.7019ZM17.3221 12.0937C17.2603 12.3001 17.2422 12.5273 17.2247 12.7019L19.2148 12.9009C19.2264 12.7845 19.2328 12.7218 19.2389 12.6762C19.2445 12.6351 19.2456 12.6422 19.2382 12.667L17.3221 12.0937ZM18.8583 10.7034C18.1274 10.8448 17.5355 11.3804 17.3221 12.0937L19.2382 12.667V12.667L18.8583 10.7034ZM19.4733 10.667C19.2978 10.667 19.0699 10.6625 18.8583 10.7034L19.2382 12.667C19.2127 12.6719 19.2058 12.6701 19.2473 12.6687C19.2933 12.6671 19.3563 12.667 19.4733 12.667V10.667ZM20.5263 10.667H19.4733V12.667H20.5263V10.667ZM21.1415 10.7034C20.9299 10.6625 20.7019 10.667 20.5263 10.667V12.667C20.6434 12.667 20.7064 12.6671 20.7524 12.6687C20.7939 12.6701 20.7869 12.6719 20.7615 12.667L21.1415 10.7034ZM22.6775 12.0935C22.4641 11.3804 21.8723 10.8449 21.1415 10.7034L20.7615 12.667V12.667L22.6775 12.0935ZM22.3332 20.0003C22.3332 21.289 21.2885 22.3337 19.9998 22.3337V24.3337C22.3931 24.3337 24.3332 22.3936 24.3332 20.0003H22.3332ZM19.9998 17.667C21.2885 17.667 22.3332 18.7117 22.3332 20.0003H24.3332C24.3332 17.6071 22.3931 15.667 19.9998 15.667V17.667ZM17.6665 20.0003C17.6665 18.7117 18.7112 17.667 19.9998 17.667V15.667C17.6066 15.667 15.6665 17.6071 15.6665 20.0003H17.6665ZM19.9998 22.3337C18.7112 22.3337 17.6665 21.289 17.6665 20.0003H15.6665C15.6665 22.3936 17.6066 24.3337 19.9998 24.3337V22.3337Z" fill="#B2B2B2"/>
</svg>
